<mxfile host="65bd71144e">
    <diagram id="C5RBs43oDa-KdzZeNtuy" name="ICP变换可视化">
        <mxGraphModel dx="406" dy="281" grid="1" gridSize="10" guides="1" tooltips="1" connect="1" arrows="1" fold="1" page="1" pageScale="1" pageWidth="827" pageHeight="1169" math="0" shadow="0">
            <root>
                <mxCell id="WIyWlLk6GJQsqaUBKTNV-0"/>
                <mxCell id="WIyWlLk6GJQsqaUBKTNV-1" parent="WIyWlLk6GJQsqaUBKTNV-0"/>
                <mxCell id="title" value="&lt;font style=&quot;font-size: 24px;&quot;&gt;ICP 变换矩阵与齐次坐标可视化&lt;/font&gt;" style="text;html=1;strokeColor=none;fillColor=none;align=center;verticalAlign=middle;whiteSpace=wrap;rounded=0;fontStyle=1" parent="WIyWlLk6GJQsqaUBKTNV-1" vertex="1">
                    <mxGeometry x="160" y="20" width="470" height="40" as="geometry"/>
                </mxCell>
                <mxCell id="input_points" value="输入关键点&#xa;(21个点，每个点有x,y,z三维坐标)&#xa;shape: (21, 3)" style="rounded=1;whiteSpace=wrap;html=1;fontSize=12;glass=0;strokeWidth=1;shadow=0;fillColor=#dae8fc;strokeColor=#6c8ebf;" parent="WIyWlLk6GJQsqaUBKTNV-1" vertex="1">
                    <mxGeometry x="160" y="90" width="200" height="60" as="geometry"/>
                </mxCell>
                <mxCell id="input_matrix" value="ICP变换矩阵&#xa;(4x4齐次变换矩阵)&#xa;包含旋转和平移信息" style="rounded=1;whiteSpace=wrap;html=1;fontSize=12;glass=0;strokeWidth=1;shadow=0;fillColor=#d5e8d4;strokeColor=#82b366;" parent="WIyWlLk6GJQsqaUBKTNV-1" vertex="1">
                    <mxGeometry x="430" y="90" width="200" height="60" as="geometry"/>
                </mxCell>
                <mxCell id="step1" value="步骤1: 转换为齐次坐标&#xa;添加第四维 w=1&#xa;shape: (21, 4)" style="rounded=1;whiteSpace=wrap;html=1;fontSize=12;glass=0;strokeWidth=1;shadow=0;fillColor=#fff2cc;strokeColor=#d6b656;" parent="WIyWlLk6GJQsqaUBKTNV-1" vertex="1">
                    <mxGeometry x="160" y="200" width="200" height="60" as="geometry"/>
                </mxCell>
                <mxCell id="step2" value="步骤2: 应用变换矩阵&#xa;矩阵乘法操作&#xa;(4x4) @ (21, 4)^T" style="rounded=1;whiteSpace=wrap;html=1;fontSize=12;glass=0;strokeWidth=1;shadow=0;fillColor=#fff2cc;strokeColor=#d6b656;" parent="WIyWlLk6GJQsqaUBKTNV-1" vertex="1">
                    <mxGeometry y="310" width="490" height="60" as="geometry"/>
                </mxCell>
                <mxCell id="step3" value="步骤3: 转回三维坐标&#xa;丢弃第四维&#xa;shape: (21, 3)" style="rounded=1;whiteSpace=wrap;html=1;fontSize=12;glass=0;strokeWidth=1;shadow=0;fillColor=#fff2cc;strokeColor=#d6b656;" parent="WIyWlLk6GJQsqaUBKTNV-1" vertex="1">
                    <mxGeometry x="160" y="420" width="200" height="60" as="geometry"/>
                </mxCell>
                <mxCell id="output_points" value="输出关键点&#xa;(变换后的21个点)&#xa;shape: (21, 3)" style="rounded=1;whiteSpace=wrap;html=1;fontSize=12;glass=0;strokeWidth=1;shadow=0;fillColor=#f8cecc;strokeColor=#b85450;" parent="WIyWlLk6GJQsqaUBKTNV-1" vertex="1">
                    <mxGeometry x="160" y="530" width="200" height="60" as="geometry"/>
                </mxCell>
                <mxCell id="arrow1" value="" style="endArrow=classic;html=1;rounded=0;exitX=0.5;exitY=1;exitDx=0;exitDy=0;entryX=0.5;entryY=0;entryDx=0;entryDy=0;" parent="WIyWlLk6GJQsqaUBKTNV-1" source="input_points" target="step1" edge="1">
                    <mxGeometry width="50" height="50" relative="1" as="geometry">
                        <mxPoint x="390" y="350" as="sourcePoint"/>
                        <mxPoint x="440" y="300" as="targetPoint"/>
                    </mxGeometry>
                </mxCell>
                <mxCell id="arrow2" value="" style="endArrow=classic;html=1;rounded=0;exitX=0.5;exitY=1;exitDx=0;exitDy=0;entryX=0.181;entryY=0.017;entryDx=0;entryDy=0;entryPerimeter=0;" parent="WIyWlLk6GJQsqaUBKTNV-1" source="step1" target="step2" edge="1">
                    <mxGeometry width="50" height="50" relative="1" as="geometry">
                        <mxPoint x="390" y="350" as="sourcePoint"/>
                        <mxPoint x="440" y="300" as="targetPoint"/>
                    </mxGeometry>
                </mxCell>
                <mxCell id="arrow3" value="" style="endArrow=classic;html=1;rounded=0;exitX=0.5;exitY=1;exitDx=0;exitDy=0;entryX=0.817;entryY=0.017;entryDx=0;entryDy=0;entryPerimeter=0;" parent="WIyWlLk6GJQsqaUBKTNV-1" source="input_matrix" target="step2" edge="1">
                    <mxGeometry width="50" height="50" relative="1" as="geometry">
                        <mxPoint x="390" y="350" as="sourcePoint"/>
                        <mxPoint x="440" y="300" as="targetPoint"/>
                    </mxGeometry>
                </mxCell>
                <mxCell id="arrow4" value="" style="endArrow=classic;html=1;rounded=0;exitX=0.5;exitY=1;exitDx=0;exitDy=0;entryX=0.5;entryY=0;entryDx=0;entryDy=0;" parent="WIyWlLk6GJQsqaUBKTNV-1" source="step2" target="step3" edge="1">
                    <mxGeometry width="50" height="50" relative="1" as="geometry">
                        <mxPoint x="390" y="450" as="sourcePoint"/>
                        <mxPoint x="440" y="400" as="targetPoint"/>
                    </mxGeometry>
                </mxCell>
                <mxCell id="arrow5" value="" style="endArrow=classic;html=1;rounded=0;exitX=0.5;exitY=1;exitDx=0;exitDy=0;entryX=0.5;entryY=0;entryDx=0;entryDy=0;" parent="WIyWlLk6GJQsqaUBKTNV-1" source="step3" target="output_points" edge="1">
                    <mxGeometry width="50" height="50" relative="1" as="geometry">
                        <mxPoint x="390" y="550" as="sourcePoint"/>
                        <mxPoint x="440" y="500" as="targetPoint"/>
                    </mxGeometry>
                </mxCell>
                <mxCell id="code_title" value="Python代码实现" style="text;html=1;strokeColor=none;fillColor=none;align=center;verticalAlign=middle;whiteSpace=wrap;rounded=0;fontStyle=1;fontSize=16;" parent="WIyWlLk6GJQsqaUBKTNV-1" vertex="1">
                    <mxGeometry x="510" y="420" width="120" height="30" as="geometry"/>
                </mxCell>
                <mxCell id="code" value="def apply_icp_transformation(keypoints_3d, transformation_matrix):&#xa;    # 步骤1: 转换为齐次坐标&#xa;    ones = np.ones((keypoints_3d.shape[0], 1))&#xa;    keypoints_homo = np.concatenate([keypoints_3d, ones], axis=1)  # (21, 4)&#xa;    &#xa;    # 步骤2: 应用变换矩阵&#xa;    transformed_keypoints_homo = (transformation_matrix @ keypoints_homo.T).T  # (21, 4)&#xa;    &#xa;    # 步骤3: 转回三维坐标&#xa;    transformed_keypoints = transformed_keypoints_homo[:, :3]&#xa;    &#xa;    return transformed_keypoints" style="text;html=1;strokeColor=#666666;fillColor=#f5f5f5;align=left;verticalAlign=top;whiteSpace=wrap;rounded=0;fontColor=#333333;fontFamily=Courier New;" parent="WIyWlLk6GJQsqaUBKTNV-1" vertex="1">
                    <mxGeometry x="440" y="460" width="340" height="190" as="geometry"/>
                </mxCell>
                <mxCell id="matrix_title" value="齐次变换矩阵详解" style="text;html=1;strokeColor=none;fillColor=none;align=center;verticalAlign=middle;whiteSpace=wrap;rounded=0;fontStyle=1;fontSize=16;" parent="WIyWlLk6GJQsqaUBKTNV-1" vertex="1">
                    <mxGeometry x="400" y="180" width="150" height="30" as="geometry"/>
                </mxCell>
                <mxCell id="matrix_explanation" value="4x4 变换矩阵结构:&#xa;&#xa;[  R₃ₓ₃  |  t₃ₓ₁  ]&#xa;[ ----------------]&#xa;[  0 0 0 |   1   ]&#xa;&#xa;R₃ₓ₃: 3x3旋转矩阵&#xa;t₃ₓ₁: 3x1平移向量&#xa;&#xa;为什么可以丢弃第四维?&#xa;- 对于刚性/仿射变换，w&#39;恒为1&#xa;- 前三维已包含所有变换信息&#xa;- 第四维只是为了在矩阵乘法中&#xa;  引入平移操作" style="text;html=1;strokeColor=#666666;fillColor=#f5f5f5;align=left;verticalAlign=top;whiteSpace=wrap;rounded=0;fontColor=#333333;" parent="WIyWlLk6GJQsqaUBKTNV-1" vertex="1">
                    <mxGeometry x="540" y="190" width="230" height="220" as="geometry"/>
                </mxCell>
                <mxCell id="explanation_arrow1" value="扩展维度，添加w=1" style="endArrow=classic;html=1;rounded=0;" parent="WIyWlLk6GJQsqaUBKTNV-1" edge="1">
                    <mxGeometry x="-0.0476" y="15" width="50" height="50" relative="1" as="geometry">
                        <mxPoint x="120" y="230" as="sourcePoint"/>
                        <mxPoint x="160" y="230" as="targetPoint"/>
                        <mxPoint as="offset"/>
                    </mxGeometry>
                </mxCell>
                <mxCell id="explanation_arrow2" value="矩阵乘法操作变换坐标" style="endArrow=classic;html=1;rounded=0;" parent="WIyWlLk6GJQsqaUBKTNV-1" edge="1">
                    <mxGeometry x="-0.0476" y="15" width="50" height="50" relative="1" as="geometry">
                        <mxPoint x="120" y="340" as="sourcePoint"/>
                        <mxPoint x="160" y="340" as="targetPoint"/>
                        <mxPoint as="offset"/>
                    </mxGeometry>
                </mxCell>
                <mxCell id="explanation_arrow3" value="丢弃第四维，不影响结果" style="endArrow=classic;html=1;rounded=0;" parent="WIyWlLk6GJQsqaUBKTNV-1" edge="1">
                    <mxGeometry x="-0.0476" y="15" width="50" height="50" relative="1" as="geometry">
                        <mxPoint x="120" y="450" as="sourcePoint"/>
                        <mxPoint x="160" y="450" as="targetPoint"/>
                        <mxPoint as="offset"/>
                    </mxGeometry>
                </mxCell>
                <mxCell id="example_title" value="具体变换示例" style="text;html=1;strokeColor=none;fillColor=none;align=center;verticalAlign=middle;whiteSpace=wrap;rounded=0;fontStyle=1;fontSize=16;" parent="WIyWlLk6GJQsqaUBKTNV-1" vertex="1">
                    <mxGeometry x="200" y="620" width="120" height="30" as="geometry"/>
                </mxCell>
                <mxCell id="example" value="原始点: (x, y, z)&#xa;转为齐次坐标: (x, y, z, 1)&#xa;&#xa;变换矩阵:&#xa;[ r₁₁ r₁₂ r₁₃ | tx ]&#xa;[ r₂₁ r₂₂ r₂₃ | ty ]&#xa;[ r₃₁ r₃₂ r₃₃ | tz ]&#xa;[ 0   0   0  | 1  ]&#xa;&#xa;变换后:&#xa;x&#39; = r₁₁x + r₁₂y + r₁₃z + tx&#xa;y&#39; = r₂₁x + r₂₂y + r₂₃z + ty&#xa;z&#39; = r₃₁x + r₃₂y + r₃₃z + tz&#xa;w&#39; = 0·x + 0·y + 0·z + 1 = 1 (恒为1)&#xa;&#xa;最终结果: (x&#39;, y&#39;, z&#39;)" style="text;html=1;strokeColor=#666666;fillColor=#f5f5f5;align=left;verticalAlign=top;whiteSpace=wrap;rounded=0;fontColor=#333333;fontFamily=Courier New;" parent="WIyWlLk6GJQsqaUBKTNV-1" vertex="1">
                    <mxGeometry x="90" y="650" width="340" height="240" as="geometry"/>
                </mxCell>
                <mxCell id="summary_title" value="总结" style="text;html=1;strokeColor=none;fillColor=none;align=center;verticalAlign=middle;whiteSpace=wrap;rounded=0;fontStyle=1;fontSize=16;" parent="WIyWlLk6GJQsqaUBKTNV-1" vertex="1">
                    <mxGeometry x="480" y="650" width="120" height="30" as="geometry"/>
                </mxCell>
                <mxCell id="summary" value="1. 齐次坐标是为了能在一次操作中同时进行&#xa;   旋转和平移，使矩阵乘法能表示所有仿射变换&#xa;&#xa;2. 对于刚性/仿射变换(如ICP)，第四维始终为1，&#xa;   因此可以安全地丢弃&#xa;&#xa;3. 只有投影变换(如相机投影)，第四维才需要&#xa;   用于归一化(x&#39;/w&#39;, y&#39;/w&#39;, z&#39;/w&#39;)&#xa;&#xa;4. 直接丢弃第四维不会丢失任何ICP变换效果，&#xa;   因为所有旋转和平移的信息已经完全保留在&#xa;   前三维坐标中" style="text;html=1;strokeColor=#666666;fillColor=#f5f5f5;align=left;verticalAlign=top;whiteSpace=wrap;rounded=0;fontColor=#333333;" parent="WIyWlLk6GJQsqaUBKTNV-1" vertex="1">
                    <mxGeometry x="440" y="680" width="300" height="210" as="geometry"/>
                </mxCell>
            </root>
        </mxGraphModel>
    </diagram>
</mxfile>
    <diagram id="C5RBs43oDa-KdzZeNtuy" name="ICP变换可视化">
        <mxGraphModel dx="406" dy="281" grid="1" gridSize="10" guides="1" tooltips="1" connect="1" arrows="1" fold="1" page="1" pageScale="1" pageWidth="827" pageHeight="1169" math="0" shadow="0">
            <root>
                <mxCell id="WIyWlLk6GJQsqaUBKTNV-0"/>
                <mxCell id="WIyWlLk6GJQsqaUBKTNV-1" parent="WIyWlLk6GJQsqaUBKTNV-0"/>
                <mxCell id="title" value="&lt;font style=&quot;font-size: 24px;&quot;&gt;ICP 变换矩阵与齐次坐标可视化&lt;/font&gt;" style="text;html=1;strokeColor=none;fillColor=none;align=center;verticalAlign=middle;whiteSpace=wrap;rounded=0;fontStyle=1" parent="WIyWlLk6GJQsqaUBKTNV-1" vertex="1">
                    <mxGeometry x="160" y="20" width="470" height="40" as="geometry"/>
                </mxCell>
                <mxCell id="input_points" value="输入关键点&#xa;(21个点，每个点有x,y,z三维坐标)&#xa;shape: (21, 3)" style="rounded=1;whiteSpace=wrap;html=1;fontSize=12;glass=0;strokeWidth=1;shadow=0;fillColor=#dae8fc;strokeColor=#6c8ebf;" parent="WIyWlLk6GJQsqaUBKTNV-1" vertex="1">
                    <mxGeometry x="160" y="90" width="200" height="60" as="geometry"/>
                </mxCell>
                <mxCell id="input_matrix" value="ICP变换矩阵&#xa;(4x4齐次变换矩阵)&#xa;包含旋转和平移信息" style="rounded=1;whiteSpace=wrap;html=1;fontSize=12;glass=0;strokeWidth=1;shadow=0;fillColor=#d5e8d4;strokeColor=#82b366;" parent="WIyWlLk6GJQsqaUBKTNV-1" vertex="1">
                    <mxGeometry x="430" y="90" width="200" height="60" as="geometry"/>
                </mxCell>
                <mxCell id="step1" value="步骤1: 转换为齐次坐标&#xa;添加第四维 w=1&#xa;shape: (21, 4)" style="rounded=1;whiteSpace=wrap;html=1;fontSize=12;glass=0;strokeWidth=1;shadow=0;fillColor=#fff2cc;strokeColor=#d6b656;" parent="WIyWlLk6GJQsqaUBKTNV-1" vertex="1">
                    <mxGeometry x="160" y="200" width="200" height="60" as="geometry"/>
                </mxCell>
                <mxCell id="step2" value="步骤2: 应用变换矩阵&#xa;矩阵乘法操作&#xa;(4x4) @ (21, 4)^T" style="rounded=1;whiteSpace=wrap;html=1;fontSize=12;glass=0;strokeWidth=1;shadow=0;fillColor=#fff2cc;strokeColor=#d6b656;" parent="WIyWlLk6GJQsqaUBKTNV-1" vertex="1">
                    <mxGeometry y="310" width="490" height="60" as="geometry"/>
                </mxCell>
                <mxCell id="step3" value="步骤3: 转回三维坐标&#xa;丢弃第四维&#xa;shape: (21, 3)" style="rounded=1;whiteSpace=wrap;html=1;fontSize=12;glass=0;strokeWidth=1;shadow=0;fillColor=#fff2cc;strokeColor=#d6b656;" parent="WIyWlLk6GJQsqaUBKTNV-1" vertex="1">
                    <mxGeometry x="160" y="420" width="200" height="60" as="geometry"/>
                </mxCell>
                <mxCell id="output_points" value="输出关键点&#xa;(变换后的21个点)&#xa;shape: (21, 3)" style="rounded=1;whiteSpace=wrap;html=1;fontSize=12;glass=0;strokeWidth=1;shadow=0;fillColor=#f8cecc;strokeColor=#b85450;" parent="WIyWlLk6GJQsqaUBKTNV-1" vertex="1">
                    <mxGeometry x="160" y="530" width="200" height="60" as="geometry"/>
                </mxCell>
                <mxCell id="arrow1" value="" style="endArrow=classic;html=1;rounded=0;exitX=0.5;exitY=1;exitDx=0;exitDy=0;entryX=0.5;entryY=0;entryDx=0;entryDy=0;" parent="WIyWlLk6GJQsqaUBKTNV-1" source="input_points" target="step1" edge="1">
                    <mxGeometry width="50" height="50" relative="1" as="geometry">
                        <mxPoint x="390" y="350" as="sourcePoint"/>
                        <mxPoint x="440" y="300" as="targetPoint"/>
                    </mxGeometry>
                </mxCell>
                <mxCell id="arrow2" value="" style="endArrow=classic;html=1;rounded=0;exitX=0.5;exitY=1;exitDx=0;exitDy=0;entryX=0.181;entryY=0.017;entryDx=0;entryDy=0;entryPerimeter=0;" parent="WIyWlLk6GJQsqaUBKTNV-1" source="step1" target="step2" edge="1">
                    <mxGeometry width="50" height="50" relative="1" as="geometry">
                        <mxPoint x="390" y="350" as="sourcePoint"/>
                        <mxPoint x="440" y="300" as="targetPoint"/>
                    </mxGeometry>
                </mxCell>
                <mxCell id="arrow3" value="" style="endArrow=classic;html=1;rounded=0;exitX=0.5;exitY=1;exitDx=0;exitDy=0;entryX=0.817;entryY=0.017;entryDx=0;entryDy=0;entryPerimeter=0;" parent="WIyWlLk6GJQsqaUBKTNV-1" source="input_matrix" target="step2" edge="1">
                    <mxGeometry width="50" height="50" relative="1" as="geometry">
                        <mxPoint x="390" y="350" as="sourcePoint"/>
                        <mxPoint x="440" y="300" as="targetPoint"/>
                    </mxGeometry>
                </mxCell>
                <mxCell id="arrow4" value="" style="endArrow=classic;html=1;rounded=0;exitX=0.5;exitY=1;exitDx=0;exitDy=0;entryX=0.5;entryY=0;entryDx=0;entryDy=0;" parent="WIyWlLk6GJQsqaUBKTNV-1" source="step2" target="step3" edge="1">
                    <mxGeometry width="50" height="50" relative="1" as="geometry">
                        <mxPoint x="390" y="450" as="sourcePoint"/>
                        <mxPoint x="440" y="400" as="targetPoint"/>
                    </mxGeometry>
                </mxCell>
                <mxCell id="arrow5" value="" style="endArrow=classic;html=1;rounded=0;exitX=0.5;exitY=1;exitDx=0;exitDy=0;entryX=0.5;entryY=0;entryDx=0;entryDy=0;" parent="WIyWlLk6GJQsqaUBKTNV-1" source="step3" target="output_points" edge="1">
                    <mxGeometry width="50" height="50" relative="1" as="geometry">
                        <mxPoint x="390" y="550" as="sourcePoint"/>
                        <mxPoint x="440" y="500" as="targetPoint"/>
                    </mxGeometry>
                </mxCell>
                <mxCell id="code_title" value="Python代码实现" style="text;html=1;strokeColor=none;fillColor=none;align=center;verticalAlign=middle;whiteSpace=wrap;rounded=0;fontStyle=1;fontSize=16;" parent="WIyWlLk6GJQsqaUBKTNV-1" vertex="1">
                    <mxGeometry x="510" y="420" width="120" height="30" as="geometry"/>
                </mxCell>
                <mxCell id="code" value="def apply_icp_transformation(keypoints_3d, transformation_matrix):&#xa;    # 步骤1: 转换为齐次坐标&#xa;    ones = np.ones((keypoints_3d.shape[0], 1))&#xa;    keypoints_homo = np.concatenate([keypoints_3d, ones], axis=1)  # (21, 4)&#xa;    &#xa;    # 步骤2: 应用变换矩阵&#xa;    transformed_keypoints_homo = (transformation_matrix @ keypoints_homo.T).T  # (21, 4)&#xa;    &#xa;    # 步骤3: 转回三维坐标&#xa;    transformed_keypoints = transformed_keypoints_homo[:, :3]&#xa;    &#xa;    return transformed_keypoints" style="text;html=1;strokeColor=#666666;fillColor=#f5f5f5;align=left;verticalAlign=top;whiteSpace=wrap;rounded=0;fontColor=#333333;fontFamily=Courier New;" parent="WIyWlLk6GJQsqaUBKTNV-1" vertex="1">
                    <mxGeometry x="440" y="460" width="340" height="190" as="geometry"/>
                </mxCell>
                <mxCell id="matrix_title" value="齐次变换矩阵详解" style="text;html=1;strokeColor=none;fillColor=none;align=center;verticalAlign=middle;whiteSpace=wrap;rounded=0;fontStyle=1;fontSize=16;" parent="WIyWlLk6GJQsqaUBKTNV-1" vertex="1">
                    <mxGeometry x="400" y="180" width="150" height="30" as="geometry"/>
                </mxCell>
                <mxCell id="matrix_explanation" value="4x4 变换矩阵结构:&#xa;&#xa;[  R₃ₓ₃  |  t₃ₓ₁  ]&#xa;[ ----------------]&#xa;[  0 0 0 |   1   ]&#xa;&#xa;R₃ₓ₃: 3x3旋转矩阵&#xa;t₃ₓ₁: 3x1平移向量&#xa;&#xa;为什么可以丢弃第四维?&#xa;- 对于刚性/仿射变换，w&#39;恒为1&#xa;- 前三维已包含所有变换信息&#xa;- 第四维只是为了在矩阵乘法中&#xa;  引入平移操作" style="text;html=1;strokeColor=#666666;fillColor=#f5f5f5;align=left;verticalAlign=top;whiteSpace=wrap;rounded=0;fontColor=#333333;" parent="WIyWlLk6GJQsqaUBKTNV-1" vertex="1">
                    <mxGeometry x="540" y="190" width="230" height="220" as="geometry"/>
                </mxCell>
                <mxCell id="explanation_arrow1" value="扩展维度，添加w=1" style="endArrow=classic;html=1;rounded=0;" parent="WIyWlLk6GJQsqaUBKTNV-1" edge="1">
                    <mxGeometry x="-0.0476" y="15" width="50" height="50" relative="1" as="geometry">
                        <mxPoint x="120" y="230" as="sourcePoint"/>
                        <mxPoint x="160" y="230" as="targetPoint"/>
                        <mxPoint as="offset"/>
                    </mxGeometry>
                </mxCell>
                <mxCell id="explanation_arrow2" value="矩阵乘法操作变换坐标" style="endArrow=classic;html=1;rounded=0;" parent="WIyWlLk6GJQsqaUBKTNV-1" edge="1">
                    <mxGeometry x="-0.0476" y="15" width="50" height="50" relative="1" as="geometry">
                        <mxPoint x="120" y="340" as="sourcePoint"/>
                        <mxPoint x="160" y="340" as="targetPoint"/>
                        <mxPoint as="offset"/>
                    </mxGeometry>
                </mxCell>
                <mxCell id="explanation_arrow3" value="丢弃第四维，不影响结果" style="endArrow=classic;html=1;rounded=0;" parent="WIyWlLk6GJQsqaUBKTNV-1" edge="1">
                    <mxGeometry x="-0.0476" y="15" width="50" height="50" relative="1" as="geometry">
                        <mxPoint x="120" y="450" as="sourcePoint"/>
                        <mxPoint x="160" y="450" as="targetPoint"/>
                        <mxPoint as="offset"/>
                    </mxGeometry>
                </mxCell>
                <mxCell id="example_title" value="具体变换示例" style="text;html=1;strokeColor=none;fillColor=none;align=center;verticalAlign=middle;whiteSpace=wrap;rounded=0;fontStyle=1;fontSize=16;" parent="WIyWlLk6GJQsqaUBKTNV-1" vertex="1">
                    <mxGeometry x="200" y="620" width="120" height="30" as="geometry"/>
                </mxCell>
                <mxCell id="example" value="原始点: (x, y, z)&#xa;转为齐次坐标: (x, y, z, 1)&#xa;&#xa;变换矩阵:&#xa;[ r₁₁ r₁₂ r₁₃ | tx ]&#xa;[ r₂₁ r₂₂ r₂₃ | ty ]&#xa;[ r₃₁ r₃₂ r₃₃ | tz ]&#xa;[ 0   0   0  | 1  ]&#xa;&#xa;变换后:&#xa;x&#39; = r₁₁x + r₁₂y + r₁₃z + tx&#xa;y&#39; = r₂₁x + r₂₂y + r₂₃z + ty&#xa;z&#39; = r₃₁x + r₃₂y + r₃₃z + tz&#xa;w&#39; = 0·x + 0·y + 0·z + 1 = 1 (恒为1)&#xa;&#xa;最终结果: (x&#39;, y&#39;, z&#39;)" style="text;html=1;strokeColor=#666666;fillColor=#f5f5f5;align=left;verticalAlign=top;whiteSpace=wrap;rounded=0;fontColor=#333333;fontFamily=Courier New;" parent="WIyWlLk6GJQsqaUBKTNV-1" vertex="1">
                    <mxGeometry x="90" y="650" width="340" height="240" as="geometry"/>
                </mxCell>
                <mxCell id="summary_title" value="总结" style="text;html=1;strokeColor=none;fillColor=none;align=center;verticalAlign=middle;whiteSpace=wrap;rounded=0;fontStyle=1;fontSize=16;" parent="WIyWlLk6GJQsqaUBKTNV-1" vertex="1">
                    <mxGeometry x="480" y="650" width="120" height="30" as="geometry"/>
                </mxCell>
                <mxCell id="summary" value="1. 齐次坐标是为了能在一次操作中同时进行&#xa;   旋转和平移，使矩阵乘法能表示所有仿射变换&#xa;&#xa;2. 对于刚性/仿射变换(如ICP)，第四维始终为1，&#xa;   因此可以安全地丢弃&#xa;&#xa;3. 只有投影变换(如相机投影)，第四维才需要&#xa;   用于归一化(x&#39;/w&#39;, y&#39;/w&#39;, z&#39;/w&#39;)&#xa;&#xa;4. 直接丢弃第四维不会丢失任何ICP变换效果，&#xa;   因为所有旋转和平移的信息已经完全保留在&#xa;   前三维坐标中" style="text;html=1;strokeColor=#666666;fillColor=#f5f5f5;align=left;verticalAlign=top;whiteSpace=wrap;rounded=0;fontColor=#333333;" parent="WIyWlLk6GJQsqaUBKTNV-1" vertex="1">
                    <mxGeometry x="440" y="680" width="300" height="210" as="geometry"/>
                </mxCell>
            </root>
        </mxGraphModel>
    </diagram>
</mxfile>